<?xml version="1.0" encoding="UTF-8" standalone="no"?><!DOCTYPE svg PUBLIC "-//W3C//DTD SVG 1.1//EN" "http://www.w3.org/Graphics/SVG/1.1/DTD/svg11.dtd"><svg width="100%" height="100%" viewBox="0 0 384 384" version="1.1" xmlns="http://www.w3.org/2000/svg" xmlns:xlink="http://www.w3.org/1999/xlink" xml:space="preserve" xmlns:serif="http://www.serif.com/" style="fill-rule:evenodd;clip-rule:evenodd;stroke-linejoin:round;stroke-miterlimit:2;"><g><path d="M214.04,-0l100.873,-0l-93.745,269.722c-14.619,41.3 -35.269,71.086 -61.949,89.359c-26.679,18.275 -61.217,26.498 -103.612,24.67l-0,-85.522c19.37,-0 33.989,-2.375 43.857,-7.126c9.868,-4.751 17.908,-13.341 24.121,-25.766l-109.643,-265.337l101.968,-0l55.37,158.983l42.76,-158.983Z" style="fill-rule:nonzero;"/><path d="M313.043,368.784c-16.079,-0 -29.786,-5.482 -41.115,-16.447c-10.965,-11.33 -16.447,-24.852 -16.447,-40.568c0,-15.716 5.666,-29.056 16.995,-40.02c11.329,-11.331 24.853,-16.994 40.567,-16.994c15.716,-0 29.057,5.663 40.02,16.994c11.331,10.964 16.995,24.304 16.995,40.02c-0,15.716 -5.664,29.238 -16.995,40.568c-10.963,10.965 -24.304,16.447 -40.02,16.447Z" style="fill:#ff385c;fill-rule:nonzero;"/></g></svg>