<?xml version="1.0" encoding="UTF-8" standalone="no"?><!DOCTYPE svg PUBLIC "-//W3C//DTD SVG 1.1//EN" "http://www.w3.org/Graphics/SVG/1.1/DTD/svg11.dtd"><svg width="100%" height="100%" viewBox="0 0 359 317" version="1.1" xmlns="http://www.w3.org/2000/svg" xmlns:xlink="http://www.w3.org/1999/xlink" xml:space="preserve" xmlns:serif="http://www.serif.com/" style="fill-rule:evenodd;clip-rule:evenodd;stroke-linejoin:round;stroke-miterlimit:2;"><path d="M264.394,219.021c-13.646,32.944 -46.083,56.137 -83.965,56.188c-37.876,0.051 -70.381,-23.054 -84.11,-55.962c-5.957,-14.273 8.619,-28.59 22.957,-22.793l30.228,12.21c19.788,7.996 41.91,7.966 61.676,-0.084l30.189,-12.291c14.329,-5.835 28.943,8.443 23.025,22.732m27.313,-193.706c-64.034,-37.966 -195.7,-36.845 -249.673,19.97c-54.651,57.528 -52.291,182.422 11.229,232.645c72.718,57.488 235.835,50.917 283.538,-35.677c37.271,-67.652 24.788,-175.503 -45.094,-216.938" style="fill:#ff385c;fill-rule:nonzero;"/></svg>