<svg width="1920" height="1080" viewBox="0 0 1920 1080" fill="none" xmlns="http://www.w3.org/2000/svg">
<g clip-path="url(#clip0_1438_18459)">
<rect width="1920" height="1080" fill="#FFF5F8"/>
<path d="M0.443595 -172.043L1.46766 -171.548L72.7308 -137.101L34.1492 -204.073L33.5367 -205.136L71.7309 -243.33L72.7121 -241.305L135.055 -112.54L135.059 -112.531C144.606 -92.5225 147.958 -74.3035 144.899 -57.9447C141.84 -41.586 132.283 -26.1464 116.44 -11.6134L115.311 -10.5769L82.7981 -43.09L83.9292 -44.2211C90.7329 -51.0248 94.8692 -56.8407 96.5632 -61.6805C98.1701 -66.2717 98.0983 -71.5616 96.1937 -77.6312L-35.9669 -132.506L-38.1766 -133.423L0.443595 -172.043ZM119.353 -296.39C134.14 -311.176 151.756 -318.606 172.125 -318.611L173.078 -318.617C193.054 -318.647 210.304 -311.414 224.745 -296.972C239.415 -282.302 246.71 -264.672 246.578 -244.169L246.577 -244.169C246.444 -223.922 238.949 -206.368 224.161 -191.581C209.501 -176.921 191.95 -169.431 171.584 -169.166L171.574 -169.166C151.071 -169.033 133.441 -176.328 118.771 -190.998C104.1 -205.669 96.8675 -223.238 97.1322 -243.618C97.267 -264.109 104.69 -281.727 119.353 -296.39ZM251.193 -500.479L389.408 -362.264L354.905 -327.762L347.728 -334.939C347.681 -321.656 342.105 -309.525 331.176 -298.596C317.905 -285.324 301.732 -279.139 282.772 -280.067L282.762 -280.067L282.75 -280.068C263.8 -281.261 246.873 -289.356 232 -304.228C217.128 -319.1 209.094 -335.967 208.033 -354.794L208.033 -354.796C206.973 -373.885 213.091 -390.128 226.368 -403.404C237.297 -414.333 249.428 -419.91 262.71 -419.956L216.691 -465.976L251.193 -500.479ZM436.695 -489.433C442.558 -495.296 449.691 -498.183 457.998 -498.059L458.777 -498.063C466.774 -498.012 473.663 -495.125 479.354 -489.434C485.229 -483.56 488.175 -476.352 488.175 -467.909C488.175 -459.71 485.217 -452.637 479.354 -446.774C473.37 -440.79 466.179 -437.702 457.857 -437.565L457.804 -437.565C449.492 -437.701 442.363 -440.718 436.501 -446.58C430.626 -452.455 427.738 -459.606 427.874 -467.935C427.881 -476.367 430.827 -483.565 436.695 -489.433ZM296.297 -557.235L440.338 -413.195L405.835 -378.692L261.795 -522.733L296.297 -557.235ZM265.92 -378.225C260.099 -372.403 257.333 -365.945 257.454 -358.796C257.575 -351.643 260.591 -345.03 266.697 -338.924C272.803 -332.819 279.415 -329.804 286.568 -329.682C293.717 -329.561 300.175 -332.327 305.997 -338.148C311.818 -343.969 314.583 -350.428 314.462 -357.576C314.341 -364.729 311.325 -371.341 305.22 -377.447C299.114 -383.553 292.501 -386.569 285.348 -386.69C278.2 -386.811 271.741 -384.046 265.92 -378.225ZM152.69 -263.053C147.413 -257.776 144.814 -251.648 144.807 -244.597L144.827 -243.95C145.108 -237.297 147.938 -231.224 153.467 -225.695C159.172 -219.99 165.457 -217.16 172.36 -217.036C179.414 -217.041 185.546 -219.639 190.825 -224.918C196.246 -230.339 198.829 -236.47 198.708 -243.375L198.707 -243.389L198.707 -243.403C198.707 -250.435 195.938 -256.774 190.242 -262.47C184.547 -268.166 178.207 -270.935 171.175 -270.935L171.161 -270.935L171.146 -270.936C164.242 -271.057 158.111 -268.474 152.69 -263.053Z" stroke="#FF385C" stroke-width="3.2"/>
<path d="M-35.8206 341.115L-34.7965 341.61L36.4666 376.056L-2.11491 309.084L-2.72742 308.022L35.4667 269.827L36.448 271.853L98.7908 400.618L98.7949 400.626C108.342 420.635 111.694 438.854 108.635 455.213C105.576 471.572 96.0184 487.011 80.176 501.544L79.047 502.581L46.5339 470.068L47.665 468.937C54.4688 462.133 58.6051 456.317 60.299 451.477C61.9059 446.886 61.8342 441.596 59.9296 435.527L-72.231 380.652L-74.4407 379.735L-35.8206 341.115ZM83.0887 216.768C97.8756 201.981 115.492 194.552 135.861 194.547L136.814 194.541C156.79 194.511 174.039 201.744 188.481 216.185C203.151 230.856 210.446 248.485 210.313 268.988L210.313 268.989C210.18 289.236 202.684 306.79 187.897 321.577C173.237 336.237 155.685 343.727 135.32 343.991L135.31 343.992C114.807 344.124 97.1768 336.83 82.5066 322.16C67.836 307.489 60.6033 289.92 60.868 269.539C61.0028 249.048 68.4261 231.431 83.0887 216.768ZM214.929 12.6788L353.143 150.893L318.641 185.396L311.463 178.218C311.417 191.501 305.841 203.633 294.912 214.562C281.641 227.833 265.468 234.019 246.508 233.091L246.497 233.09L246.486 233.09C227.536 231.897 210.608 223.802 195.736 208.93C180.864 194.058 172.83 177.191 171.769 158.363L171.769 158.362C170.709 139.273 176.827 123.03 190.104 109.753C201.032 98.8244 213.164 93.2482 226.446 93.2012L180.426 47.1813L214.929 12.6788ZM400.431 23.7245C406.294 17.8619 413.427 14.9749 421.734 15.0984L422.512 15.0949C430.51 15.1458 437.399 18.0326 443.09 23.7239C448.964 29.598 451.91 36.8059 451.91 45.2485C451.91 53.4478 448.953 60.5207 443.09 66.3837C437.106 72.3678 429.915 75.4562 421.593 75.5926L421.54 75.5926C413.228 75.4564 406.099 72.4399 400.236 66.5777C394.362 60.7026 391.474 53.552 391.61 45.2222C391.616 36.7909 394.563 29.5926 400.431 23.7245ZM260.033 -44.0776L404.074 99.9629L369.571 134.465L225.531 -9.57507L260.033 -44.0776ZM229.656 134.933C223.835 140.754 221.069 147.213 221.19 154.362C221.311 161.515 224.327 168.128 230.433 174.233C236.538 180.339 243.151 183.354 250.304 183.475C257.452 183.597 263.911 180.831 269.732 175.009C275.554 169.188 278.319 162.73 278.198 155.581C278.076 148.429 275.061 141.816 268.956 135.711C262.85 129.605 256.237 126.589 249.084 126.468C241.935 126.347 235.477 129.112 229.656 134.933ZM116.426 250.105C111.149 255.382 108.55 261.51 108.543 268.561L108.562 269.207C108.844 275.86 111.674 281.934 117.203 287.463C122.908 293.168 129.192 295.998 136.095 296.122C143.15 296.117 149.282 293.518 154.56 288.24C159.981 282.819 162.565 276.687 162.443 269.783L162.443 269.769L162.443 269.755C162.443 262.723 159.674 256.384 153.978 250.688C148.282 244.992 141.943 242.223 134.911 242.223L134.897 242.223L134.882 242.222C127.978 242.101 121.847 244.684 116.426 250.105Z" stroke="#FF385C" stroke-width="3.2"/>
<path d="M-72.0847 854.273L-71.0607 854.768L0.202445 889.214L-38.3791 822.242L-38.9916 821.179L-0.797452 782.985L0.183796 785.011L62.5266 913.776L62.5307 913.784C72.0775 933.793 75.4297 952.012 72.3708 968.371C69.3119 984.73 59.7542 1000.17 43.9119 1014.7L42.7828 1015.74L10.2697 983.226L11.4008 982.095C18.2046 975.291 22.3409 969.475 24.0348 964.635C25.6417 960.044 25.57 954.754 23.6654 948.684L-108.495 893.81L-110.705 892.893L-72.0847 854.273ZM46.8245 729.926C61.6114 715.139 79.2281 707.71 99.5965 707.705L100.55 707.699C120.525 707.669 137.775 714.902 152.217 729.343C166.887 744.013 174.181 761.643 174.049 782.146L174.049 782.147C173.916 802.394 166.42 819.947 151.633 834.735C136.973 849.395 119.421 856.885 99.0558 857.149L99.0455 857.15C78.5426 857.282 60.9126 849.988 46.2424 835.317C31.5719 820.647 24.3392 803.078 24.6038 782.697C24.7386 762.206 32.162 744.589 46.8245 729.926ZM178.665 525.837L316.879 664.051L282.377 698.554L275.199 691.376C275.153 704.659 269.577 716.791 258.648 727.72C245.376 740.991 229.203 747.177 210.244 746.249L210.233 746.248L210.221 746.248C191.272 745.055 174.344 736.96 159.472 722.088C144.6 707.216 136.566 690.349 135.505 671.521L135.505 671.52C134.444 652.431 140.563 636.188 153.839 622.911C164.768 611.982 176.899 606.406 190.182 606.359L144.162 560.339L178.665 525.837ZM364.167 536.883C370.03 531.02 377.163 528.133 385.47 528.256L386.248 528.253C394.246 528.304 401.135 531.191 406.826 536.882C412.7 542.756 415.646 549.964 415.646 558.406C415.646 566.606 412.689 573.679 406.826 579.542C400.842 585.526 393.651 588.614 385.328 588.751L385.276 588.751C376.964 588.614 369.835 585.598 363.972 579.736C358.097 573.861 355.21 566.71 355.346 558.38C355.352 549.949 358.299 542.751 364.167 536.883ZM223.769 469.08L367.81 613.121L333.307 647.623L189.266 503.583L223.769 469.08ZM193.392 648.091C187.57 653.912 184.805 660.371 184.926 667.52C185.047 674.672 188.063 681.285 194.169 687.391C200.274 693.497 206.887 696.512 214.039 696.633C221.188 696.755 227.647 693.989 233.468 688.167C239.289 682.346 242.055 675.888 241.934 668.739C241.812 661.587 238.797 654.974 232.691 648.868C226.586 642.763 219.973 639.747 212.82 639.626C205.671 639.505 199.213 642.27 193.392 648.091ZM80.1614 763.263C74.8851 768.539 72.286 774.668 72.279 781.719L72.2983 782.365C72.58 789.018 75.4098 795.092 80.939 800.621C86.6441 806.326 92.9283 809.156 99.8313 809.28C106.886 809.275 113.017 806.676 118.296 801.398C123.717 795.977 126.3 789.845 126.179 782.941L126.179 782.927L126.179 782.913C126.179 775.881 123.41 769.542 117.714 763.846C112.018 758.15 105.678 755.381 98.6463 755.381L98.6325 755.381L98.618 755.38C91.714 755.259 85.5825 757.842 80.1614 763.263Z" stroke="#FF385C" stroke-width="3.2"/>
<path d="M477.337 304.851L478.361 305.346L549.624 339.792L511.043 272.82L510.43 271.757L548.624 233.563L549.606 235.589L611.948 364.354L611.953 364.362C621.499 384.371 624.852 402.59 621.793 418.949C618.734 435.308 609.176 450.747 593.334 465.28L592.205 466.317L559.692 433.804L560.823 432.672C567.626 425.869 571.763 420.053 573.457 415.213C575.064 410.622 574.992 405.332 573.087 399.262L440.927 344.388L438.717 343.471L477.337 304.851ZM596.246 180.504C611.033 165.717 628.65 158.288 649.018 158.283L649.972 158.276C669.947 158.246 687.197 165.48 701.638 179.921C716.309 194.591 723.603 212.221 723.471 232.724L723.47 232.725C723.338 252.972 715.842 270.525 701.055 285.313C686.394 299.973 668.843 307.463 648.478 307.727L648.467 307.728C627.964 307.86 610.335 300.565 595.664 285.895C580.994 271.225 573.761 253.656 574.026 233.275C574.161 212.784 581.584 195.167 596.246 180.504ZM728.087 -23.5854L866.301 114.629L831.799 149.132L824.621 141.954C824.574 155.237 818.999 167.369 808.07 178.298C794.798 191.569 778.625 197.755 759.665 196.827L759.655 196.826L759.643 196.825C740.694 195.633 723.766 187.538 708.894 172.666C694.022 157.794 685.988 140.927 684.927 122.099L684.927 122.098C683.866 103.009 689.984 86.766 703.261 73.4892C714.19 62.5603 726.321 56.984 739.604 56.9371L693.584 10.9171L728.087 -23.5854ZM913.589 -12.5396C919.452 -18.4023 926.585 -21.2893 934.892 -21.1658L935.67 -21.1692C943.668 -21.1183 950.557 -18.2315 956.248 -12.5403C962.122 -6.6662 965.068 0.54171 965.068 8.98432C965.068 17.1836 962.111 24.2565 956.248 30.1195C950.264 36.1036 943.073 39.192 934.75 39.3285L934.698 39.3285C926.386 39.1922 919.256 36.1758 913.394 30.3135C907.519 24.4385 904.631 17.2879 904.768 8.95809C904.774 0.526717 907.721 -6.67156 913.589 -12.5396ZM773.191 -80.3418L917.231 63.6988L882.729 98.2013L738.688 -45.8392L773.191 -80.3418ZM742.814 98.6688C736.992 104.49 734.227 110.949 734.348 118.098C734.469 125.25 737.485 131.863 743.59 137.969C749.696 144.075 756.309 147.09 763.461 147.211C770.61 147.332 777.069 144.567 782.89 138.745C788.711 132.924 791.477 126.466 791.355 119.317C791.234 112.165 788.219 105.552 782.113 99.4463C776.007 93.3405 769.395 90.3248 762.242 90.2036C755.093 90.0824 748.635 92.8477 742.814 98.6688ZM629.583 213.841C624.307 219.117 621.708 225.246 621.701 232.297L621.72 232.943C622.002 239.596 624.832 245.67 630.361 251.199C636.066 256.904 642.35 259.734 649.253 259.857C656.308 259.853 662.439 257.254 667.718 251.976C673.139 246.555 675.722 240.423 675.601 233.519L675.601 233.505L675.601 233.491C675.6 226.459 672.832 220.119 667.136 214.424C661.44 208.728 655.1 205.958 648.068 205.958L648.054 205.958L648.04 205.958C641.136 205.837 635.004 208.42 629.583 213.841Z" stroke="#FF385C" stroke-width="3.2"/>
<path d="M-108.349 1367.43L-107.325 1367.92L-36.0622 1402.37L-74.6437 1335.4L-75.2562 1334.34L-37.0621 1296.14L-36.0809 1298.17L26.2619 1426.93L26.2661 1426.94C35.8129 1446.95 39.1651 1465.17 36.1062 1481.53C33.0472 1497.89 23.4896 1513.33 7.64722 1527.86L6.5182 1528.9L-25.9949 1496.38L-24.8638 1495.25C-18.06 1488.45 -13.9237 1482.63 -12.2298 1477.79C-10.6229 1473.2 -10.6946 1467.91 -12.5992 1461.84L-144.76 1406.97L-146.97 1406.05L-108.349 1367.43ZM10.5599 1243.08C25.3468 1228.3 42.9635 1220.87 63.3319 1220.86L64.2855 1220.86C84.2608 1220.83 101.511 1228.06 115.952 1242.5C130.622 1257.17 137.917 1274.8 137.785 1295.3L137.784 1295.3C137.651 1315.55 130.156 1333.1 115.368 1347.89C100.708 1362.55 83.1566 1370.04 62.7912 1370.31L62.7808 1370.31C42.2779 1370.44 24.648 1363.14 9.97777 1348.47C-4.69278 1333.8 -11.9255 1316.23 -11.6608 1295.85C-11.526 1275.36 -4.10267 1257.75 10.5599 1243.08ZM142.4 1038.99L280.615 1177.21L246.112 1211.71L238.935 1204.53C238.888 1217.82 233.312 1229.95 222.383 1240.88C209.112 1254.15 192.939 1260.33 173.979 1259.41L173.969 1259.41L173.957 1259.4C155.007 1258.21 138.08 1250.12 123.207 1235.24C108.335 1220.37 100.301 1203.51 99.2403 1184.68L99.2403 1184.68C98.1798 1165.59 104.298 1149.35 117.575 1136.07C128.504 1125.14 140.635 1119.56 153.917 1119.52L107.898 1073.5L142.4 1038.99ZM327.902 1050.04C333.765 1044.18 340.898 1041.29 349.205 1041.41L349.984 1041.41C357.981 1041.46 364.87 1044.35 370.561 1050.04C376.436 1055.91 379.382 1063.12 379.382 1071.56C379.382 1079.76 376.424 1086.84 370.561 1092.7C364.577 1098.68 357.386 1101.77 349.064 1101.91L349.011 1101.91C340.699 1101.77 333.57 1098.75 327.708 1092.89C321.833 1087.02 318.945 1079.87 319.081 1071.54C319.088 1063.11 322.034 1055.91 327.902 1050.04ZM187.504 982.237L331.545 1126.28L297.042 1160.78L153.002 1016.74L187.504 982.237ZM157.127 1161.25C151.306 1167.07 148.54 1173.53 148.661 1180.68C148.782 1187.83 151.798 1194.44 157.904 1200.55C164.01 1206.65 170.622 1209.67 177.775 1209.79C184.924 1209.91 191.382 1207.15 197.204 1201.32C203.025 1195.5 205.79 1189.04 205.669 1181.9C205.548 1174.74 202.532 1168.13 196.427 1162.03C190.321 1155.92 183.708 1152.9 176.555 1152.78C169.407 1152.66 162.948 1155.43 157.127 1161.25ZM43.8968 1276.42C38.6204 1281.7 36.0214 1287.83 36.0143 1294.88L36.0337 1295.52C36.3153 1302.18 39.1452 1308.25 44.6743 1313.78C50.3794 1319.48 56.6637 1322.31 63.5667 1322.44C70.6213 1322.43 76.7528 1319.83 82.0315 1314.55C87.4527 1309.13 90.0357 1303 89.9147 1296.1L89.914 1296.08L89.914 1296.07C89.914 1289.04 87.145 1282.7 81.4494 1277C75.7536 1271.31 69.4138 1268.54 62.3817 1268.54L62.3679 1268.54L62.3534 1268.54C55.4494 1268.42 49.3179 1271 43.8968 1276.42Z" stroke="#FF385C" stroke-width="3.2"/>
<path d="M441.073 818.008L442.097 818.503L513.36 852.949L474.778 785.977L474.166 784.915L512.36 746.72L513.341 748.746L575.684 877.511L575.688 877.519C585.235 897.528 588.587 915.747 585.528 932.106C582.469 948.465 572.911 963.904 557.069 978.437L555.94 979.474L523.427 946.961L524.558 945.83C531.362 939.026 535.498 933.21 537.192 928.37C538.799 923.779 538.727 918.489 536.823 912.42L404.662 857.545L402.452 856.628L441.073 818.008ZM559.982 693.661C574.769 678.874 592.385 671.445 612.754 671.44L613.707 671.434C633.683 671.404 650.933 678.637 665.374 693.078C680.044 707.749 687.339 725.379 687.206 745.881L687.206 745.882C687.073 766.129 679.577 783.683 664.79 798.47C650.13 813.13 632.578 820.62 612.213 820.884L612.203 820.885C591.7 821.017 574.07 813.723 559.4 799.053C544.729 784.382 537.496 766.813 537.761 746.433C537.896 725.942 545.319 708.324 559.982 693.661ZM691.822 489.572L830.036 627.786L795.534 662.289L788.357 655.111C788.31 668.394 782.734 680.526 771.805 691.455C758.534 704.726 742.361 710.912 723.401 709.984L723.39 709.983L723.379 709.983C704.429 708.79 687.501 700.695 672.629 685.823C657.757 670.951 649.723 654.084 648.662 635.257L648.662 635.255C647.602 616.166 653.72 599.923 666.997 586.646C677.925 575.717 690.057 570.141 703.339 570.094L657.319 524.074L691.822 489.572ZM877.324 500.618C883.187 494.755 890.32 491.868 898.627 491.991L899.405 491.988C907.403 492.039 914.292 494.926 919.983 500.617C925.857 506.491 928.804 513.699 928.804 522.142C928.804 530.341 925.846 537.414 919.983 543.277C913.999 549.261 906.808 552.349 898.486 552.486L898.433 552.486C890.121 552.349 882.992 549.333 877.13 543.471C871.255 537.596 868.367 530.445 868.503 522.115C868.509 513.684 871.456 506.486 877.324 500.618ZM736.926 432.815L880.967 576.856L846.464 611.359L702.424 467.318L736.926 432.815ZM706.549 611.826C700.728 617.647 697.962 624.106 698.083 631.255C698.204 638.408 701.22 645.021 707.326 651.126C713.432 657.232 720.044 660.247 727.197 660.368C734.345 660.49 740.804 657.724 746.625 651.903C752.447 646.081 755.212 639.623 755.091 632.474C754.97 625.322 751.954 618.709 745.849 612.604C739.743 606.498 733.13 603.482 725.977 603.361C718.829 603.24 712.37 606.005 706.549 611.826ZM593.319 726.998C588.042 732.275 585.443 738.403 585.436 745.454L585.456 746.1C585.737 752.754 588.567 758.827 594.096 764.356C599.801 770.061 606.086 772.891 612.989 773.015C620.043 773.01 626.175 770.412 631.453 765.133C636.875 759.712 639.458 753.58 639.337 746.676L639.336 746.662L639.336 746.648C639.336 739.616 636.567 733.277 630.871 727.581C625.176 721.885 618.836 719.116 611.804 719.116L611.79 719.116L611.775 719.115C604.871 718.994 598.74 721.577 593.319 726.998Z" stroke="#FF385C" stroke-width="3.2"/>
<path d="M990.495 268.586L991.519 269.081L1062.78 303.528L1024.2 236.555L1023.59 235.493L1061.78 197.299L1062.76 199.324L1125.11 328.089L1125.11 328.097C1134.66 348.106 1138.01 366.325 1134.95 382.684C1131.89 399.043 1122.33 414.482 1106.49 429.016L1105.36 430.052L1072.85 397.539L1073.98 396.408C1080.78 389.604 1084.92 383.788 1086.61 378.948C1088.22 374.357 1088.15 369.067 1086.25 362.998L954.084 308.123L951.875 307.206L990.495 268.586ZM1109.4 144.239C1124.19 129.452 1141.81 122.023 1162.18 122.018L1163.13 122.012C1183.11 121.982 1200.35 129.215 1214.8 143.657C1229.47 158.327 1236.76 175.957 1236.63 196.46L1236.63 196.46C1236.5 216.707 1229 234.261 1214.21 249.048C1199.55 263.708 1182 271.198 1161.64 271.463L1161.63 271.463C1141.12 271.596 1123.49 264.301 1108.82 249.631C1094.15 234.96 1086.92 217.391 1087.18 197.011C1087.32 176.52 1094.74 158.902 1109.4 144.239ZM1241.24 -59.85L1379.46 78.3645L1344.96 112.867L1337.78 105.69C1337.73 118.973 1332.16 131.104 1321.23 142.033C1307.96 155.305 1291.78 161.49 1272.82 160.562L1272.81 160.561L1272.8 160.561C1253.85 159.368 1236.92 151.273 1222.05 136.401C1207.18 121.529 1199.15 104.662 1198.08 85.8347L1198.08 85.8333C1197.02 66.7444 1203.14 50.5014 1216.42 37.2245C1227.35 26.2956 1239.48 20.7194 1252.76 20.6724L1206.74 -25.3475L1241.24 -59.85ZM1426.75 -48.8043C1432.61 -54.6669 1439.74 -57.5539 1448.05 -57.4304L1448.83 -57.4339C1456.83 -57.383 1463.71 -54.4962 1469.41 -48.805C1475.28 -42.9308 1478.23 -35.7229 1478.23 -27.2803C1478.23 -19.081 1475.27 -12.0081 1469.41 -6.14515C1463.42 -0.161021 1456.23 2.92736 1447.91 3.06381L1447.86 3.06381C1439.54 2.92756 1432.41 -0.0888706 1426.55 -5.95111C1420.68 -11.8262 1417.79 -18.9768 1417.93 -27.3066C1417.93 -35.7379 1420.88 -42.9362 1426.75 -48.8043ZM1286.35 -116.606L1430.39 27.4341L1395.89 61.9367L1251.85 -82.1039L1286.35 -116.606ZM1255.97 62.4042C1250.15 68.2254 1247.38 74.6842 1247.51 81.833C1247.63 88.9857 1250.64 95.5987 1256.75 101.705C1262.85 107.81 1269.47 110.825 1276.62 110.947C1283.77 111.068 1290.23 108.302 1296.05 102.481C1301.87 96.6595 1304.63 90.2012 1304.51 83.0525C1304.39 75.8999 1301.38 69.2874 1295.27 63.1817C1289.17 57.0759 1282.55 54.0601 1275.4 53.9389C1268.25 53.8178 1261.79 56.5831 1255.97 62.4042ZM1142.74 177.576C1137.46 182.853 1134.87 188.981 1134.86 196.032L1134.88 196.678C1135.16 203.332 1137.99 209.405 1143.52 214.934C1149.22 220.639 1155.51 223.469 1162.41 223.593C1169.47 223.588 1175.6 220.99 1180.88 215.711C1186.3 210.29 1188.88 204.158 1188.76 197.254L1188.76 197.24L1188.76 197.226C1188.76 190.194 1185.99 183.855 1180.29 178.159C1174.6 172.463 1168.26 169.694 1161.23 169.694L1161.21 169.694L1161.2 169.693C1154.29 169.572 1148.16 172.155 1142.74 177.576Z" stroke="#FF385C" stroke-width="3.2"/>
<path d="M404.808 1331.17L405.832 1331.66L477.096 1366.11L438.514 1299.14L437.901 1298.07L476.096 1259.88L477.077 1261.9L539.42 1390.67L539.424 1390.68C548.971 1410.69 552.323 1428.91 549.264 1445.26C546.205 1461.62 536.647 1477.06 520.805 1491.6L519.676 1492.63L487.163 1460.12L488.294 1458.99C495.098 1452.18 499.234 1446.37 500.928 1441.53C502.535 1436.94 502.463 1431.65 500.558 1425.58L368.398 1370.7L366.188 1369.79L404.808 1331.17ZM523.718 1206.82C538.504 1192.03 556.121 1184.6 576.49 1184.6L577.443 1184.59C597.419 1184.56 614.668 1191.79 629.11 1206.24C643.78 1220.91 651.075 1238.54 650.942 1259.04L650.942 1259.04C650.809 1279.29 643.313 1296.84 628.526 1311.63C613.866 1326.29 596.314 1333.78 575.949 1334.04L575.939 1334.04C555.436 1334.18 537.806 1326.88 523.135 1312.21C508.465 1297.54 501.232 1279.97 501.497 1259.59C501.632 1239.1 509.055 1221.48 523.718 1206.82ZM655.558 1002.73L793.772 1140.94L759.27 1175.45L752.092 1168.27C752.046 1181.55 746.47 1193.68 735.541 1204.61C722.269 1217.88 706.096 1224.07 687.137 1223.14L687.126 1223.14L687.115 1223.14C668.165 1221.95 651.237 1213.85 636.365 1198.98C621.493 1184.11 613.459 1167.24 612.398 1148.41L612.398 1148.41C611.338 1129.32 617.456 1113.08 630.732 1099.8C641.661 1088.88 653.793 1083.3 667.075 1083.25L621.055 1037.23L655.558 1002.73ZM841.06 1013.78C846.923 1007.91 854.056 1005.03 862.363 1005.15L863.141 1005.15C871.139 1005.2 878.028 1008.08 883.719 1013.77C889.593 1019.65 892.539 1026.86 892.539 1035.3C892.539 1043.5 889.582 1050.57 883.719 1056.43C877.735 1062.42 870.544 1065.51 862.221 1065.64L862.169 1065.64C853.857 1065.51 846.728 1062.49 840.865 1056.63C834.99 1050.75 832.103 1043.6 832.239 1035.27C832.245 1026.84 835.192 1019.64 841.06 1013.78ZM700.662 945.973L844.703 1090.01L810.2 1124.52L666.16 980.476L700.662 945.973ZM670.285 1124.98C664.464 1130.81 661.698 1137.26 661.819 1144.41C661.94 1151.57 664.956 1158.18 671.062 1164.28C677.167 1170.39 683.78 1173.4 690.932 1173.53C698.081 1173.65 704.54 1170.88 710.361 1165.06C716.182 1159.24 718.948 1152.78 718.827 1145.63C718.705 1138.48 715.69 1131.87 709.584 1125.76C703.479 1119.66 696.866 1116.64 689.713 1116.52C682.564 1116.4 676.106 1119.16 670.285 1124.98ZM557.055 1240.16C551.778 1245.43 549.179 1251.56 549.172 1258.61L549.191 1259.26C549.473 1265.91 552.303 1271.98 557.832 1277.51C563.537 1283.22 569.821 1286.05 576.724 1286.17C583.779 1286.17 589.911 1283.57 595.189 1278.29C600.61 1272.87 603.193 1266.74 603.072 1259.83L603.072 1259.82L603.072 1259.81C603.072 1252.77 600.303 1246.43 594.607 1240.74C588.911 1235.04 582.572 1232.27 575.539 1232.27L575.526 1232.27L575.511 1232.27C568.607 1232.15 562.476 1234.73 557.055 1240.16Z" stroke="#FF385C" stroke-width="3.2"/>
<path d="M954.23 781.744L955.254 782.239L1026.52 816.685L987.936 749.713L987.323 748.65L1025.52 710.456L1026.5 712.482L1088.84 841.247L1088.85 841.255C1098.39 861.264 1101.74 879.483 1098.69 895.842C1095.63 912.201 1086.07 927.64 1070.23 942.173L1069.1 943.21L1036.58 910.697L1037.72 909.566C1044.52 902.762 1048.66 896.946 1050.35 892.106C1051.96 887.515 1051.88 882.225 1049.98 876.155L917.82 821.281L915.61 820.364L954.23 781.744ZM1073.14 657.397C1087.93 642.61 1105.54 635.181 1125.91 635.176L1126.87 635.169C1146.84 635.14 1164.09 642.373 1178.53 656.814C1193.2 671.484 1200.5 689.114 1200.36 709.617L1200.36 709.618C1200.23 729.865 1192.74 747.418 1177.95 762.206C1163.29 776.866 1145.74 784.356 1125.37 784.62L1125.36 784.621C1104.86 784.753 1087.23 777.458 1072.56 762.788C1057.89 748.118 1050.65 730.549 1050.92 710.168C1051.05 689.677 1058.48 672.06 1073.14 657.397ZM1204.98 453.308L1343.19 591.522L1308.69 626.025L1301.51 618.847C1301.47 632.13 1295.89 644.262 1284.96 655.191C1271.69 668.462 1255.52 674.648 1236.56 673.72L1236.55 673.719L1236.54 673.719C1217.59 672.526 1200.66 664.431 1185.79 649.559C1170.91 634.687 1162.88 617.82 1161.82 598.992L1161.82 598.991C1160.76 579.902 1166.88 563.659 1180.15 550.382C1191.08 539.453 1203.21 533.877 1216.5 533.83L1170.48 487.81L1204.98 453.308ZM1390.48 464.353C1396.34 458.491 1403.48 455.604 1411.78 455.727L1412.56 455.724C1420.56 455.775 1427.45 458.662 1433.14 464.353C1439.02 470.227 1441.96 477.435 1441.96 485.877C1441.96 494.077 1439 501.15 1433.14 507.013C1427.16 512.997 1419.97 516.085 1411.64 516.222L1411.59 516.222C1403.28 516.085 1396.15 513.069 1390.29 507.207C1384.41 501.332 1381.52 494.181 1381.66 485.851C1381.67 477.42 1384.61 470.222 1390.48 464.353ZM1250.08 396.551L1394.12 540.592L1359.62 575.094L1215.58 431.054L1250.08 396.551ZM1219.71 575.562C1213.89 581.383 1211.12 587.842 1211.24 594.991C1211.36 602.143 1214.38 608.756 1220.48 614.862C1226.59 620.968 1233.2 623.983 1240.35 624.104C1247.5 624.226 1253.96 621.46 1259.78 615.638C1265.6 609.817 1268.37 603.359 1268.25 596.21C1268.13 589.058 1265.11 582.445 1259.01 576.339C1252.9 570.234 1246.29 567.218 1239.13 567.097C1231.99 566.975 1225.53 569.741 1219.71 575.562ZM1106.48 690.734C1101.2 696.01 1098.6 702.139 1098.59 709.19L1098.61 709.836C1098.89 716.489 1101.72 722.563 1107.25 728.092C1112.96 733.797 1119.24 736.627 1126.15 736.75C1133.2 736.746 1139.33 734.147 1144.61 728.869C1150.03 723.448 1152.62 717.316 1152.49 710.412L1152.49 710.398L1152.49 710.384C1152.49 703.352 1149.72 697.012 1144.03 691.317C1138.33 685.621 1131.99 682.852 1124.96 682.852L1124.95 682.852L1124.93 682.851C1118.03 682.73 1111.9 685.313 1106.48 690.734Z" stroke="#FF385C" stroke-width="3.2"/>
<path d="M1503.65 232.322L1504.68 232.817L1575.94 267.263L1537.36 200.291L1536.75 199.229L1574.94 161.034L1575.92 163.06L1638.26 291.825L1638.27 291.833C1647.81 311.842 1651.17 330.061 1648.11 346.42C1645.05 362.779 1635.49 378.218 1619.65 392.751L1618.52 393.788L1586.01 361.275L1587.14 360.144C1593.94 353.34 1598.08 347.524 1599.77 342.684C1601.38 338.093 1601.31 332.803 1599.4 326.734L1467.24 271.859L1465.03 270.942L1503.65 232.322ZM1622.56 107.975C1637.35 93.1883 1654.96 85.7589 1675.33 85.7538L1676.29 85.7476C1696.26 85.7177 1713.51 92.9511 1727.95 107.392C1742.62 122.063 1749.92 139.693 1749.79 160.195L1749.79 160.196C1749.65 180.443 1742.16 197.997 1727.37 212.784C1712.71 227.444 1695.16 234.934 1674.79 235.198L1674.78 235.199C1654.28 235.331 1636.65 228.037 1621.98 213.367C1607.31 198.696 1600.08 181.127 1600.34 160.746C1600.48 140.255 1607.9 122.638 1622.56 107.975ZM1754.4 -96.1142L1892.62 42.1003L1858.11 76.6028L1850.94 69.4254C1850.89 82.7084 1845.31 94.8398 1834.38 105.769C1821.11 119.04 1804.94 125.226 1785.98 124.298L1785.97 124.297L1785.96 124.297C1767.01 123.104 1750.08 115.009 1735.21 100.137C1720.34 85.2649 1712.3 68.398 1711.24 49.5705L1711.24 49.5691C1710.18 30.4802 1716.3 14.2372 1729.58 0.960372C1740.51 -9.96855 1752.64 -15.5448 1765.92 -15.5917L1719.9 -61.6117L1754.4 -96.1142ZM1939.9 -85.0684C1945.77 -90.9311 1952.9 -93.8181 1961.21 -93.6946L1961.99 -93.698C1969.98 -93.6471 1976.87 -90.7603 1982.56 -85.0691C1988.44 -79.195 1991.38 -71.9871 1991.38 -63.5445C1991.38 -55.3452 1988.43 -48.2723 1982.56 -42.4093C1976.58 -36.4252 1969.39 -33.3368 1961.07 -33.2004L1961.01 -33.2004C1952.7 -33.3366 1945.57 -36.353 1939.71 -42.2153C1933.83 -48.0903 1930.95 -55.2409 1931.08 -63.5707C1931.09 -72.0021 1934.04 -79.2004 1939.9 -85.0684ZM1799.51 -152.871L1943.55 -8.83003L1909.04 25.6725L1765 -118.368L1799.51 -152.871ZM1769.13 26.14C1763.31 31.9613 1760.54 38.4201 1760.66 45.5689C1760.78 52.7216 1763.8 59.3346 1769.91 65.4404C1776.01 71.5459 1782.62 74.5612 1789.78 74.6825C1796.93 74.8036 1803.38 72.0378 1809.21 66.2165C1815.03 60.3953 1817.79 53.937 1817.67 46.7883C1817.55 39.6357 1814.53 33.0233 1808.43 26.9175C1802.32 20.8117 1795.71 17.796 1788.56 17.6747C1781.41 17.5536 1774.95 20.3189 1769.13 26.14ZM1655.9 141.312C1650.62 146.589 1648.02 152.717 1648.02 159.768L1648.04 160.414C1648.32 167.067 1651.15 173.141 1656.68 178.67C1662.38 184.375 1668.67 187.205 1675.57 187.329C1682.62 187.324 1688.75 184.725 1694.03 179.447C1699.45 174.026 1702.04 167.894 1701.92 160.99L1701.92 160.976L1701.92 160.962C1701.92 153.93 1699.15 147.591 1693.45 141.895C1687.76 136.199 1681.42 133.43 1674.38 133.43L1674.37 133.43L1674.35 133.429C1667.45 133.308 1661.32 135.891 1655.9 141.312Z" stroke="#FF385C" stroke-width="3.2"/>
<path d="M917.966 1294.9L918.99 1295.4L990.253 1329.84L951.671 1262.87L951.059 1261.81L989.253 1223.61L990.234 1225.64L1052.58 1354.4L1052.58 1354.41C1062.13 1374.42 1065.48 1392.64 1062.42 1409C1059.36 1425.36 1049.8 1440.8 1033.96 1455.33L1032.83 1456.37L1000.32 1423.85L1001.45 1422.72C1008.25 1415.92 1012.39 1410.1 1014.09 1405.26C1015.69 1400.67 1015.62 1395.38 1013.72 1389.31L881.555 1334.44L879.345 1333.52L917.966 1294.9ZM1036.87 1170.55C1051.66 1155.77 1069.28 1148.34 1089.65 1148.33L1090.6 1148.33C1110.58 1148.3 1127.83 1155.53 1142.27 1169.97C1156.94 1184.64 1164.23 1202.27 1164.1 1222.78L1164.1 1222.78C1163.97 1243.02 1156.47 1260.58 1141.68 1275.36C1127.02 1290.02 1109.47 1297.51 1089.11 1297.78L1089.1 1297.78C1068.59 1297.91 1050.96 1290.62 1036.29 1275.95C1021.62 1261.28 1014.39 1243.71 1014.65 1223.33C1014.79 1202.84 1022.21 1185.22 1036.87 1170.55ZM1168.72 966.465L1306.93 1104.68L1272.43 1139.18L1265.25 1132.01C1265.2 1145.29 1259.63 1157.42 1248.7 1168.35C1235.43 1181.62 1219.25 1187.81 1200.29 1186.88L1200.28 1186.88L1200.27 1186.88C1181.32 1185.68 1164.39 1177.59 1149.52 1162.72C1134.65 1147.84 1126.62 1130.98 1125.56 1112.15L1125.56 1112.15C1124.49 1093.06 1130.61 1076.82 1143.89 1063.54C1154.82 1052.61 1166.95 1047.03 1180.23 1046.99L1134.21 1000.97L1168.72 966.465ZM1354.22 977.511C1360.08 971.649 1367.21 968.761 1375.52 968.885L1376.3 968.882C1384.3 968.932 1391.19 971.819 1396.88 977.51C1402.75 983.385 1405.7 990.592 1405.7 999.035C1405.7 1007.23 1402.74 1014.31 1396.88 1020.17C1390.89 1026.15 1383.7 1029.24 1375.38 1029.38L1375.33 1029.38C1367.01 1029.24 1359.88 1026.23 1354.02 1020.36C1348.15 1014.49 1345.26 1007.34 1345.4 999.009C1345.4 990.577 1348.35 983.379 1354.22 977.511ZM1213.82 909.709L1357.86 1053.75L1323.36 1088.25L1179.32 944.212L1213.82 909.709ZM1183.44 1088.72C1177.62 1094.54 1174.85 1101 1174.98 1108.15C1175.1 1115.3 1178.11 1121.91 1184.22 1128.02C1190.32 1134.13 1196.94 1137.14 1204.09 1137.26C1211.24 1137.38 1217.7 1134.62 1223.52 1128.8C1229.34 1122.97 1232.1 1116.52 1231.98 1109.37C1231.86 1102.22 1228.85 1095.6 1222.74 1089.5C1216.64 1083.39 1210.02 1080.38 1202.87 1080.25C1195.72 1080.13 1189.26 1082.9 1183.44 1088.72ZM1070.21 1203.89C1064.94 1209.17 1062.34 1215.3 1062.33 1222.35L1062.35 1222.99C1062.63 1229.65 1065.46 1235.72 1070.99 1241.25C1076.69 1246.95 1082.98 1249.78 1089.88 1249.91C1096.94 1249.9 1103.07 1247.31 1108.35 1242.03C1113.77 1236.61 1116.35 1230.47 1116.23 1223.57L1116.23 1223.56L1116.23 1223.54C1116.23 1216.51 1113.46 1210.17 1107.76 1204.47C1102.07 1198.78 1095.73 1196.01 1088.7 1196.01L1088.68 1196.01L1088.67 1196.01C1081.76 1195.89 1075.63 1198.47 1070.21 1203.89Z" stroke="#FF385C" stroke-width="3.2"/>
<path d="M1467.39 745.479L1468.41 745.975L1539.68 780.421L1501.09 713.449L1500.48 712.386L1538.68 674.192L1539.66 676.217L1602 804.983L1602 804.991C1611.55 825 1614.9 843.219 1611.84 859.578C1608.79 875.936 1599.23 891.376 1583.39 905.909L1582.26 906.946L1549.74 874.432L1550.87 873.301C1557.68 866.498 1561.81 860.682 1563.51 855.842C1565.11 851.251 1565.04 845.961 1563.14 839.891L1430.98 785.017L1428.77 784.1L1467.39 745.479ZM1586.3 621.133C1601.08 606.346 1618.7 598.917 1639.07 598.912L1640.02 598.905C1660 598.875 1677.25 606.109 1691.69 620.55C1706.36 635.22 1713.65 652.85 1713.52 673.353L1713.52 673.354C1713.39 693.601 1705.89 711.154 1691.11 725.941C1676.45 740.602 1658.89 748.092 1638.53 748.356L1638.52 748.357C1618.02 748.489 1600.39 741.194 1585.72 726.524C1571.05 711.854 1563.81 694.285 1564.08 673.904C1564.21 653.413 1571.64 635.796 1586.3 621.133ZM1718.14 417.044L1856.35 555.258L1821.85 589.761L1814.67 582.583C1814.63 595.866 1809.05 607.997 1798.12 618.927C1784.85 632.198 1768.68 638.384 1749.72 637.456L1749.71 637.455L1749.69 637.454C1730.75 636.262 1713.82 628.167 1698.95 613.295C1684.07 598.423 1676.04 581.556 1674.98 562.728L1674.98 562.727C1673.92 543.638 1680.04 527.395 1693.31 514.118C1704.24 503.189 1716.37 497.613 1729.66 497.566L1683.64 451.546L1718.14 417.044ZM1903.64 428.089C1909.5 422.227 1916.64 419.34 1924.94 419.463L1925.72 419.46C1933.72 419.511 1940.61 422.397 1946.3 428.089C1952.17 433.963 1955.12 441.171 1955.12 449.613C1955.12 457.813 1952.16 464.885 1946.3 470.748C1940.32 476.733 1933.12 479.821 1924.8 479.957L1924.75 479.957C1916.44 479.821 1909.31 476.805 1903.45 470.942C1897.57 465.067 1894.68 457.917 1894.82 449.587C1894.83 441.156 1897.77 433.957 1903.64 428.089ZM1763.24 360.287L1907.28 504.328L1872.78 538.83L1728.74 394.79L1763.24 360.287ZM1732.86 539.298C1727.04 545.119 1724.28 551.578 1724.4 558.727C1724.52 565.879 1727.54 572.492 1733.64 578.598C1739.75 584.704 1746.36 587.719 1753.51 587.84C1760.66 587.961 1767.12 585.195 1772.94 579.374C1778.76 573.553 1781.53 567.095 1781.41 559.946C1781.29 552.793 1778.27 546.181 1772.16 540.075C1766.06 533.969 1759.45 530.954 1752.29 530.832C1745.14 530.711 1738.69 533.477 1732.86 539.298ZM1619.63 654.47C1614.36 659.746 1611.76 665.875 1611.75 672.926L1611.77 673.572C1612.05 680.225 1614.88 686.299 1620.41 691.828C1626.12 697.533 1632.4 700.363 1639.3 700.486C1646.36 700.481 1652.49 697.883 1657.77 692.605C1663.19 687.183 1665.77 681.052 1665.65 674.148L1665.65 674.133L1665.65 674.12C1665.65 667.088 1662.88 660.748 1657.19 655.053C1651.49 649.357 1645.15 646.587 1638.12 646.587L1638.11 646.587L1638.09 646.587C1631.19 646.466 1625.06 649.049 1619.63 654.47Z" stroke="#FF385C" stroke-width="3.2"/>
<path d="M1431.12 1258.64L1432.15 1259.13L1503.41 1293.58L1464.83 1226.61L1464.22 1225.54L1502.41 1187.35L1503.39 1189.38L1565.74 1318.14L1565.74 1318.15C1575.29 1338.16 1578.64 1356.38 1575.58 1372.74C1572.52 1389.09 1562.96 1404.53 1547.12 1419.07L1545.99 1420.1L1513.48 1387.59L1514.61 1386.46C1521.41 1379.66 1525.55 1373.84 1527.24 1369C1528.85 1364.41 1528.78 1359.12 1526.87 1353.05L1394.71 1298.17L1392.5 1297.26L1431.12 1258.64ZM1550.03 1134.29C1564.82 1119.5 1582.44 1112.07 1602.81 1112.07L1603.76 1112.06C1623.73 1112.03 1640.98 1119.27 1655.43 1133.71C1670.1 1148.38 1677.39 1166.01 1677.26 1186.51L1677.26 1186.51C1677.12 1206.76 1669.63 1224.31 1654.84 1239.1C1640.18 1253.76 1622.63 1261.25 1602.26 1261.51L1602.25 1261.51C1581.75 1261.65 1564.12 1254.35 1549.45 1239.68C1534.78 1225.01 1527.55 1207.44 1527.81 1187.06C1527.95 1166.57 1535.37 1148.95 1550.03 1134.29ZM1681.87 930.201L1820.09 1068.42L1785.59 1102.92L1778.41 1095.74C1778.36 1109.02 1772.79 1121.16 1761.86 1132.08C1748.58 1145.36 1732.41 1151.54 1713.45 1150.61L1713.44 1150.61L1713.43 1150.61C1694.48 1149.42 1677.55 1141.32 1662.68 1126.45C1647.81 1111.58 1639.77 1094.71 1638.71 1075.89L1638.71 1075.88C1637.65 1056.8 1643.77 1040.55 1657.05 1027.28C1667.98 1016.35 1680.11 1010.77 1693.39 1010.72L1647.37 964.704L1681.87 930.201ZM1867.38 941.247C1873.24 935.384 1880.37 932.497 1888.68 932.621L1889.46 932.617C1897.45 932.668 1904.34 935.555 1910.03 941.246C1915.91 947.12 1918.85 954.328 1918.85 962.771C1918.85 970.97 1915.9 978.043 1910.03 983.906C1904.05 989.89 1896.86 992.979 1888.54 993.115L1888.48 993.115C1880.17 992.979 1873.04 989.962 1867.18 984.1C1861.31 978.225 1858.42 971.074 1858.55 962.745C1858.56 954.313 1861.51 947.115 1867.38 941.247ZM1726.98 873.445L1871.02 1017.49L1836.52 1051.99L1692.47 907.947L1726.98 873.445ZM1696.6 1052.46C1690.78 1058.28 1688.01 1064.74 1688.13 1071.88C1688.26 1079.04 1691.27 1085.65 1697.38 1091.76C1703.48 1097.86 1710.1 1100.88 1717.25 1101C1724.4 1101.12 1730.86 1098.35 1736.68 1092.53C1742.5 1086.71 1745.26 1080.25 1745.14 1073.1C1745.02 1065.95 1742.01 1059.34 1735.9 1053.23C1729.79 1047.13 1723.18 1044.11 1716.03 1043.99C1708.88 1043.87 1702.42 1046.63 1696.6 1052.46ZM1583.37 1167.63C1578.09 1172.9 1575.49 1179.03 1575.49 1186.08L1575.51 1186.73C1575.79 1193.38 1578.62 1199.46 1584.15 1204.99C1589.85 1210.69 1596.14 1213.52 1603.04 1213.64C1610.09 1213.64 1616.23 1211.04 1621.5 1205.76C1626.93 1200.34 1629.51 1194.21 1629.39 1187.31L1629.39 1187.29L1629.39 1187.28C1629.39 1180.25 1626.62 1173.91 1620.92 1168.21C1615.23 1162.51 1608.89 1159.75 1601.85 1159.75L1601.84 1159.75L1601.83 1159.74C1594.92 1159.62 1588.79 1162.21 1583.37 1167.63Z" stroke="#FF385C" stroke-width="3.2"/>
<path d="M1980.55 709.215L1981.57 709.71L2052.83 744.157L2014.25 677.185L2013.64 676.122L2051.83 637.928L2052.81 639.953L2115.16 768.719L2115.16 768.727C2124.71 788.736 2128.06 806.955 2125 823.314C2121.94 839.672 2112.38 855.112 2096.54 869.645L2095.41 870.681L2062.9 838.168L2064.03 837.037C2070.83 830.233 2074.97 824.418 2076.67 819.578C2078.27 814.987 2078.2 809.697 2076.3 803.627L1944.14 748.752L1941.93 747.835L1980.55 709.215ZM2099.45 584.869C2114.24 570.082 2131.86 562.652 2152.23 562.647L2153.18 562.641C2173.16 562.611 2190.41 569.845 2204.85 584.286C2219.52 598.956 2226.81 616.586 2226.68 637.089L2226.68 637.09C2226.55 657.336 2219.05 674.89 2204.26 689.677C2189.6 704.338 2172.05 711.827 2151.69 712.092L2151.68 712.093C2131.17 712.225 2113.54 704.93 2098.87 690.26C2084.2 675.59 2076.97 658.02 2077.23 637.64C2077.37 617.149 2084.79 599.531 2099.45 584.869ZM2231.3 380.779L2369.51 518.994L2335.01 553.496L2327.83 546.319C2327.78 559.602 2322.21 571.733 2311.28 582.662C2298.01 595.934 2281.83 602.12 2262.87 601.192L2262.86 601.191L2262.85 601.19C2243.9 599.997 2226.97 591.903 2212.1 577.03C2197.23 562.158 2189.2 545.292 2188.14 526.464L2188.14 526.463C2187.07 507.374 2193.19 491.131 2206.47 477.854C2217.4 466.925 2229.53 461.349 2242.81 461.302L2196.79 415.282L2231.3 380.779ZM2416.8 391.825C2422.66 385.962 2429.79 383.075 2438.1 383.199L2438.88 383.196C2446.88 383.246 2453.77 386.133 2459.46 391.824C2465.33 397.699 2468.28 404.906 2468.28 413.349C2468.28 421.548 2465.32 428.621 2459.46 434.484C2453.47 440.468 2446.28 443.557 2437.96 443.693L2437.91 443.693C2429.59 443.557 2422.46 440.541 2416.6 434.678C2410.73 428.803 2407.84 421.653 2407.98 413.323C2407.98 404.891 2410.93 397.693 2416.8 391.825ZM2276.4 324.023L2420.44 468.064L2385.94 502.566L2241.9 358.526L2276.4 324.023ZM2246.02 503.034C2240.2 508.855 2237.43 515.314 2237.56 522.462C2237.68 529.615 2240.69 536.228 2246.8 542.334C2252.9 548.439 2259.52 551.455 2266.67 551.576C2273.82 551.697 2280.28 548.931 2286.1 543.11C2291.92 537.289 2294.69 530.831 2294.56 523.682C2294.44 516.529 2291.43 509.917 2285.32 503.811C2279.22 497.705 2272.6 494.69 2265.45 494.568C2258.3 494.447 2251.84 497.212 2246.02 503.034ZM2132.79 618.206C2127.52 623.482 2124.92 629.611 2124.91 636.662L2124.93 637.308C2125.21 643.961 2128.04 650.034 2133.57 655.564C2139.27 661.269 2145.56 664.099 2152.46 664.222C2159.52 664.217 2165.65 661.619 2170.93 656.34C2176.35 650.919 2178.93 644.788 2178.81 637.884L2178.81 637.869L2178.81 637.855C2178.81 630.823 2176.04 624.484 2170.34 618.788C2164.65 613.093 2158.31 610.323 2151.28 610.323L2151.26 610.323L2151.25 610.323C2144.34 610.201 2138.21 612.785 2132.79 618.206Z" stroke="#FF385C" stroke-width="3.2"/>
</g>
<defs>
<clipPath id="clip0_1438_18459">
<rect width="1920" height="1080" fill="white"/>
</clipPath>
</defs>
</svg>
