<?xml version="1.0" encoding="UTF-8" standalone="no"?><!DOCTYPE svg PUBLIC "-//W3C//DTD SVG 1.1//EN" "http://www.w3.org/Graphics/SVG/1.1/DTD/svg11.dtd"><svg width="100%" height="100%" viewBox="0 0 2605 1050" version="1.1" xmlns="http://www.w3.org/2000/svg" xmlns:xlink="http://www.w3.org/1999/xlink" xml:space="preserve" xmlns:serif="http://www.serif.com/" style="fill-rule:evenodd;clip-rule:evenodd;stroke-linejoin:round;stroke-miterlimit:2;"><path d="M593.795,261.419l-191.583,543.383c-62.737,178.138 -162.454,248.721 -319.304,240.879l-0,-156.854c78.425,0 115.396,-24.646 140.046,-92.992l-222.954,-534.416l184.862,-0l124.363,342.833l105.312,-342.833l179.258,-0Z" style="fill:#0f0f0f;fill-rule:nonzero;"/><path d="M1030.76,541.514c0,-79.546 -56.016,-132.204 -128.841,-132.204c-72.825,-0 -128.842,52.658 -128.842,132.204c0,79.541 56.017,132.204 128.842,132.204c72.825,-0 128.841,-52.663 128.841,-132.204m-425.741,-0c-0,-166.934 132.204,-295.779 296.9,-295.779c164.691,-0 296.896,128.845 296.896,295.779c-0,166.933 -132.205,295.779 -296.896,295.779c-164.696,-0 -296.9,-128.846 -296.9,-295.779" style="fill:#0f0f0f;fill-rule:nonzero;"/><path d="M1700.75,541.514c0,-84.029 -56.016,-136.688 -133.325,-136.688c-77.3,0 -133.321,52.659 -133.321,136.688c0,84.029 56.021,136.683 133.321,136.683c77.309,0 133.325,-52.654 133.325,-136.683m168.054,-537.779l0,817.87l-168.054,0l0,-52.658c-36.971,42.575 -91.871,68.346 -166.937,68.346c-146.767,-0 -267.763,-128.846 -267.763,-295.779c0,-166.934 120.996,-295.779 267.763,-295.779c75.066,-0 129.966,25.766 166.937,68.345l0,-310.345l168.054,-0Z" style="fill:#0f0f0f;fill-rule:nonzero;"/><rect x="1992.05" y="3.737" width="168.054" height="817.867" style="fill:#0f0f0f;"/><path d="M2510.23,723.187c-13.646,32.945 -46.083,56.137 -83.964,56.188c-37.876,0.051 -70.382,-23.053 -84.111,-55.961c-5.957,-14.273 8.619,-28.59 22.958,-22.793l30.228,12.209c19.787,7.997 41.909,7.967 61.675,-0.083l30.19,-12.291c14.328,-5.835 28.943,8.442 23.024,22.731m27.313,-193.705c-64.034,-37.967 -195.699,-36.845 -249.672,19.97c-54.651,57.528 -52.292,182.421 11.228,232.644c72.718,57.489 235.835,50.918 283.538,-35.676c37.272,-67.652 24.788,-175.503 -45.094,-216.938" style="fill:#ff385c;fill-rule:nonzero;"/></svg>